<svg width="40" height="48" viewBox="0 0 40 48" fill="none" xmlns="http://www.w3.org/2000/svg">
<path d="M28.6571 0.295895C26.4313 0.552926 23.2813 2.51621 21.7172 4.61621C20.8149 5.81933 20.2844 6.96777 19.825 8.69589L19.5953 9.55996L19.6063 10.4787C19.6172 10.9818 19.6446 11.4521 19.6719 11.5287C19.743 11.7092 19.8797 11.7365 20.8422 11.742C21.6406 11.7475 21.6899 11.742 22.3735 11.5396C24.2 11.0092 25.5399 10.2107 26.4914 9.07871C26.7211 8.7998 27.0657 8.42793 27.2461 8.24199C27.8477 7.65136 28.6188 6.33886 29.0453 5.20136C29.4719 4.05839 29.6633 2.99746 29.718 1.48808L29.7508 0.520113L29.6086 0.377926C29.45 0.219332 29.3625 0.213863 28.6571 0.295895Z" fill="#717171"/>
<path d="M28.1485 11.5998C27.0657 11.6545 24.1508 12.4639 22.0563 13.2842C20.7875 13.7818 20.7875 13.7818 20.536 13.8256C20.0985 13.8967 19.0266 13.585 17.1836 12.8412C16.2047 12.4529 15.1985 12.1576 13.711 11.8185C13.0875 11.6818 12.0539 11.6654 11.6055 11.7912C11.425 11.8404 10.8563 11.9553 10.3422 12.0428C9.23753 12.2396 8.61409 12.431 7.78284 12.8412C5.27269 14.0662 3.56097 15.8271 2.20472 18.5834C1.60316 19.7975 1.16019 20.9842 0.832063 22.2475C0.345344 24.1232 0.334407 27.7217 0.810188 29.9037C0.864875 30.1717 0.914094 30.4889 0.914094 30.6146C0.914094 30.8771 0.963313 31.074 1.42269 32.8842C1.84925 34.5576 1.8055 34.4209 2.62034 36.4662C3.76331 39.3373 4.12425 39.9717 6.45941 43.1928C7.41644 44.5107 7.90316 45.1123 8.60863 45.8287C9.34691 46.5834 9.943 47.0209 10.7852 47.4365C11.7367 47.9014 12.1524 48.0053 13.0274 47.9998C14.1485 47.9998 15.0508 47.7701 16.768 47.0482C17.8508 46.5943 17.9219 46.5725 19.8907 46.1678C20.4813 46.042 21.0282 46.0529 21.8594 46.1896C22.1438 46.2334 22.5703 46.299 22.8 46.3318C23.2649 46.3975 23.7352 46.5506 24.9492 47.0373C26.4149 47.6279 27.4485 47.8904 28.5313 47.956C30.1063 48.0545 31.6266 47.3545 33.2508 45.7959C34.9078 44.1935 36.4555 42.0006 38.0196 39.042C38.4407 38.2435 39.1133 36.6084 39.2282 36.1162C39.2774 35.9193 39.3594 35.6732 39.4196 35.5748C39.4743 35.4764 39.5235 35.3396 39.5235 35.2795C39.5235 35.0826 39.1242 34.7709 38.4188 34.4154C37.0899 33.7318 35.7828 32.5615 34.9024 31.2435C34.2735 30.2975 33.6391 28.881 33.4805 28.0443C33.2125 26.6662 33.136 25.1568 33.2891 24.1068C33.3274 23.8334 33.4641 23.2592 33.5953 22.8217C34.1586 20.924 34.5469 20.1639 35.4274 19.2232C35.6953 18.9443 35.9141 18.6873 35.9141 18.6654C35.9141 18.5725 37.2539 17.4514 37.5821 17.2709C37.7625 17.167 37.9922 17.0084 38.0907 16.91C38.3914 16.6146 38.3477 16.4998 37.593 15.6139C36.5813 14.4271 35.3071 13.4537 33.8086 12.7264C32.8735 12.2725 32.2282 12.0482 31.3258 11.8623C30.4016 11.6654 29.0235 11.5506 28.1485 11.5998Z" fill="#717171"/>
</svg>
